<svg width="24" height="24" viewBox="0 0 24 24" fill="none" xmlns="http://www.w3.org/2000/svg">
<path d="M2.03147 9.97955L10.0273 15.7693C10.7401 16.2834 11.0966 16.5404 11.4818 16.6403C11.8221 16.7285 12.177 16.7285 12.5174 16.6403C12.9027 16.5404 13.2591 16.2834 13.9719 15.7693L21.9678 9.97955M10.109 2.84996L3.6646 7.22839C3.0569 7.64126 2.75306 7.8477 2.53267 8.12676C2.33761 8.37376 2.19084 8.66096 2.10123 8.97103C2 9.32135 2 9.70951 2 10.4858V18.1535C2 19.4999 2 20.1731 2.24221 20.6874C2.45526 21.1397 2.79521 21.5075 3.21336 21.738C3.68871 22 4.31099 22 5.55556 22H18.4444C19.689 22 20.3113 22 20.7867 21.738C21.2048 21.5075 21.5448 21.1397 21.7578 20.6874C22 20.1731 22 19.4999 22 18.1535V10.4858C22 9.70951 22 9.32135 21.8988 8.97103C21.8091 8.66096 21.6624 8.37376 21.4673 8.12676C21.247 7.8477 20.9431 7.64126 20.3354 7.22839L13.891 2.84996C13.2051 2.38401 12.8622 2.15105 12.4943 2.06023C12.1689 1.97992 11.8311 1.97992 11.5057 2.06023C11.1378 2.15105 10.7949 2.38401 10.109 2.84996Z" stroke="white" stroke-width="3" stroke-linecap="round" stroke-linejoin="round"/>
</svg>
