<svg width="24" height="24" viewBox="0 0 24 24" fill="none" xmlns="http://www.w3.org/2000/svg">
<path d="M2 4.77778C2 14.2893 9.71066 22 19.2222 22C19.6513 22 20.0768 21.9843 20.4981 21.9534C20.9816 21.918 21.2232 21.9003 21.4433 21.7737C21.6256 21.6688 21.7983 21.4828 21.8897 21.2933C22 21.0647 22 20.7979 22 20.2644V17.1341C22 16.6854 22 16.4611 21.9261 16.2689C21.861 16.099 21.755 15.9478 21.6177 15.8284C21.4622 15.6933 21.2513 15.6167 20.8298 15.4633L17.2667 14.1677C16.7761 13.9893 16.5308 13.9001 16.2981 13.9152C16.0929 13.9286 15.8954 13.9987 15.7277 14.1176C15.5374 14.2523 15.4032 14.4761 15.1347 14.9238L14.2222 16.4444C11.2779 15.111 8.891 12.721 7.55556 9.77778L9.07626 8.86535C9.52383 8.59681 9.74762 8.46253 9.88244 8.27229C10.0013 8.10453 10.0714 7.90708 10.0848 7.70189C10.0999 7.46919 10.0107 7.22392 9.83233 6.73339L8.53666 3.17023C8.38333 2.74862 8.30668 2.53781 8.17158 2.38233C8.05223 2.24499 7.90099 2.13906 7.73113 2.07383C7.53884 2 7.31453 2 6.86591 2H3.73557C3.20209 2 2.93534 2 2.70664 2.11028C2.51722 2.20162 2.33127 2.37446 2.22633 2.5567C2.09964 2.77674 2.08194 3.01847 2.04654 3.50192C2.0157 3.92318 2 4.34864 2 4.77778Z" stroke="white" stroke-width="3" stroke-linecap="round" stroke-linejoin="round"/>
</svg>
