<svg width="50" height="50" viewBox="0 0 50 50" fill="none" xmlns="http://www.w3.org/2000/svg">
<g clip-path="url(#clip0_35_191)">
<path d="M28.3667 6.85858C28.9369 6.13673 29.2894 5.22661 29.2894 4.2377C29.2894 1.90093 27.3941 0 25.0573 0C22.7206 0 20.8225 1.90093 20.8225 4.2377C20.8225 5.2268 21.125 6.13673 21.6947 6.85858C19.9501 7.96455 18.7494 9.91132 18.7494 12.1255V17.2813C18.7494 18.066 19.4663 18.7472 20.251 18.7472H29.8752C30.6599 18.7472 31.2507 18.0658 31.2507 17.2813V12.1255C31.2505 9.91132 30.1118 7.96436 28.3667 6.85858Z" fill="#31A889"/>
<path d="M15.5294 23.5891V18.4333C15.5294 16.2193 14.4396 14.2721 12.6945 13.1663C13.2647 12.4445 13.6416 11.5344 13.6416 10.5455C13.6416 8.2087 11.7585 6.30777 9.42169 6.30777C7.08493 6.30777 5.1929 8.20889 5.1929 10.5457C5.1929 11.5348 5.54426 12.4447 6.114 13.1665C4.36915 14.2725 3.21753 16.2193 3.21753 18.4335V23.5893C3.21753 24.374 3.84278 24.9979 4.62732 24.9979H14.2515C15.0362 24.9977 15.5294 24.3738 15.5294 23.5891Z" fill="#31A889"/>
<path d="M43.9498 13.1666C44.5195 12.4447 44.898 11.5346 44.898 10.5457C44.898 8.20891 43.0154 6.30798 40.6787 6.30798C38.3419 6.30798 36.4501 8.20891 36.4501 10.5457C36.4501 11.5348 36.7991 12.4447 37.3691 13.1666C35.6242 14.2725 34.4703 16.2193 34.4703 18.4335V23.5893C34.4703 24.374 35.1003 24.9979 35.885 24.9979H45.5092C46.294 24.9979 46.7823 24.374 46.7823 23.5893V18.4335C46.7823 16.2193 45.6945 14.2723 43.9498 13.1666Z" fill="#31A889"/>
<path d="M28.3667 38.1595C28.9369 37.4377 29.2894 36.5278 29.2894 35.5388C29.2894 33.2021 27.3941 31.3011 25.0573 31.3011C22.7206 31.3011 20.8225 33.2021 20.8225 35.5388C20.8225 36.5278 21.125 37.4379 21.6947 38.1597C19.9501 39.2657 18.7494 41.2125 18.7494 43.4267V48.5825C18.7494 49.3672 19.4663 50 20.251 50H29.8752C30.6599 50 31.2507 49.367 31.2507 48.5825V43.4267C31.2505 41.2123 30.1118 39.2657 28.3667 38.1595ZM25.063 34.1423C25.833 34.1423 26.4596 34.7689 26.4596 35.5388C26.4596 36.309 25.833 36.9354 25.063 36.9354C24.2931 36.9354 23.6665 36.3088 23.6665 35.5388C23.6665 34.7689 24.2929 34.1423 25.063 34.1423ZM28.4094 47.1588H21.5906V43.4267C21.5906 41.5564 23.1299 40.0351 25.0001 40.0351C26.87 40.0351 28.4094 41.5564 28.4094 43.4267V47.1588Z" fill="#31A889"/>
<path d="M26.3259 26.2439V21.5362C26.3259 20.7515 25.6901 20.1157 24.9053 20.1157C24.1206 20.1157 23.4847 20.7515 23.4847 21.5362V26.2439C23.4847 27.0286 24.1206 27.6645 24.9053 27.6645C25.6899 27.6645 26.3259 27.0284 26.3259 26.2439Z" fill="#31A889"/>
<path d="M11.238 26.5511C10.6681 26.0119 9.7695 26.0363 9.22949 26.6058C8.69005 27.1756 8.71467 28.0747 9.28423 28.6144L16.4267 35.3777C16.7016 35.6377 17.0527 35.7667 17.4033 35.7667C17.7797 35.7667 18.1557 35.6178 18.4351 35.3229C18.9745 34.7532 18.9499 33.854 18.3803 33.3144L11.238 26.5511Z" fill="#31A889"/>
<path d="M38.875 26.531L31.752 33.3098C31.1835 33.8506 31.1614 34.7499 31.7021 35.3182C31.9813 35.6118 32.356 35.7595 32.7314 35.7595C33.0831 35.7595 33.4356 35.6296 33.7105 35.368L40.8335 28.5891C41.4019 28.0484 41.4241 27.1492 40.8833 26.581C40.3425 26.0122 39.4432 25.9904 38.875 26.531Z" fill="#31A889"/>
</g>
<defs>
<clipPath id="clip0_35_191">
<rect width="50" height="50" fill="white"/>
</clipPath>
</defs>
</svg>
