<svg width="48" height="48" viewBox="0 0 48 48" fill="none" xmlns="http://www.w3.org/2000/svg">
<path fill-rule="evenodd" clip-rule="evenodd" d="M20.3171 1.20232C19.5036 0.388737 18.1845 0.388737 17.3709 1.20232L1.16634 17.4069C0.352755 18.2204 0.352755 19.5395 1.16634 20.3531L2.63955 21.8263L27.6829 46.8696C28.4965 47.6831 29.8156 47.6831 30.6292 46.8696L32.0856 45.4131L32.1023 45.3965L32.1192 45.3796L45.345 32.1538L45.3606 32.1383L45.376 32.1227L46.8335 30.665C47.6473 29.8515 47.6473 28.5325 46.8335 27.7188L45.3756 26.2608L45.3606 26.2456L45.3454 26.2306L21.8029 2.68807C21.7988 2.68386 21.7946 2.67965 21.7904 2.67547C21.7861 2.67128 21.7819 2.66709 21.7777 2.66292L20.3171 1.20232ZM15.8978 8.56801L8.53207 15.9337C10.1593 17.5609 10.1593 20.1992 8.53211 21.8263L17.3709 30.665L26.2098 39.504C27.8369 37.8767 30.4752 37.8767 32.1023 39.504L39.4681 32.1383C37.8408 30.511 37.8408 27.8729 39.4681 26.2456L30.6446 17.4223C34.0861 20.8829 33.3275 26.4938 29.8925 29.9285C26.4527 33.3685 20.8302 34.1244 17.3709 30.665C13.9117 27.2058 14.6676 21.5833 18.1075 18.1434C21.5423 14.7086 27.1531 13.9499 30.6138 17.3914L21.7902 8.56805C20.1631 10.1952 17.5249 10.1952 15.8978 8.56801C15.8978 8.56801 15.8978 8.56799 15.8978 8.56801ZM21.0538 21.0898C23.309 18.8345 26.2606 18.9308 27.6829 20.3531C29.1052 21.7754 29.2015 24.7271 26.9463 26.9823C24.6911 29.2375 21.7396 29.141 20.3171 27.7188C18.8949 26.2965 18.7986 23.345 21.0538 21.0898Z" fill="#31A889"/>
</svg>
