<svg width="40" height="40" viewBox="0 0 40 40" fill="none" xmlns="http://www.w3.org/2000/svg">
<path d="M16.6667 40H0V0H30V18.3333H26.6667V3.33333H3.33333V11.6667H26.6667V15H3.33333V20H25.1667V23.3333H3.33333V28.3333H21.6667V31.6667H3.33333V36.6667H16.6667V40Z" fill="#31A889"/>
<path d="M25 5H20V10H25V5Z" fill="#31A889"/>
<path d="M37.8333 24.5L34.5 27.8333L32.1666 25.5L35.5 22.1667C34.8333 21.8333 34 21.6667 33.3333 21.6667C32 21.6667 30.8333 22.1667 29.8333 23.1667C28.3333 24.6667 28 27 28.8333 28.8333L20.3333 37.3333L22.6666 39.6667L31.1666 31.1667C33 32 35.3333 31.6667 36.8333 30.1667C37.8333 29.1667 38.3333 27.8333 38.3333 26.6667C38.3333 25.8333 38.1666 25.1667 37.8333 24.5Z" fill="#31A889"/>
</svg>
