<svg width="50" height="50" viewBox="0 0 50 50" fill="none" xmlns="http://www.w3.org/2000/svg">
<g clip-path="url(#clip0_35_124)">
<path d="M37.6281 13.0764C41.2332 13.0764 44.1663 10.1434 44.1663 6.53822C44.1663 2.933 41.2332 0 37.6281 0C34.0231 0 31.0901 2.933 31.0901 6.53822C31.0901 10.1434 34.0229 13.0764 37.6281 13.0764ZM37.6281 2.83148C39.6719 2.83148 41.3348 4.49444 41.3348 6.53822C41.3348 8.58199 39.6719 10.245 37.6281 10.245C35.5843 10.245 33.9215 8.58199 33.9215 6.53822C33.9215 4.49444 35.5842 2.83148 37.6281 2.83148Z" fill="#31A889"/>
<path d="M45.1906 32.7123C42.8975 38.0724 37.7257 41.836 31.63 42.2138L34.1045 39.7391C34.6574 39.186 34.6574 38.2897 34.1045 37.7369C33.5515 37.1842 32.6554 37.1842 32.1023 37.7369L27.1793 42.6601C26.6264 43.2131 26.6264 44.1094 27.1793 44.6623L32.1023 49.5854C32.3788 49.8616 32.7411 50 33.1035 50C33.466 50 33.8281 49.8618 34.1047 49.5854C34.6576 49.0325 34.6576 48.136 34.1047 47.5832L31.5749 45.0536C40.538 44.6098 48.5813 37.8734 49.2055 29.0746C49.3434 27.1315 49.2417 21.2828 49.2417 21.2828C49.2417 18.4916 47.5098 16.0234 44.8618 15.1409C44.851 15.1374 43.022 14.5761 43.022 14.5761C42.3017 14.3546 41.5347 14.7371 41.2766 15.4446L38.9145 21.9254C38.9145 21.9254 38.3173 18.2261 38.2678 18.1445C38.2707 18.1396 38.2744 18.1354 38.2773 18.1305L39.532 15.9573C39.6658 15.7253 39.6658 15.4397 39.532 15.2078C39.3981 14.9758 39.1505 14.833 38.8828 14.833H36.3734C36.1057 14.833 35.8581 14.9758 35.7242 15.2078C35.5904 15.4397 35.5904 15.7253 35.7242 15.9573L36.9789 18.1305C36.9818 18.1354 36.9853 18.1397 36.9884 18.1445C36.9389 18.2261 36.3417 21.9254 36.3417 21.9254L33.9798 15.4446C33.7219 14.7369 32.9544 14.3542 32.2343 14.5761C32.2343 14.5761 30.4054 15.1374 30.3946 15.1409C27.7466 16.0234 25.9677 18.4916 25.9677 21.2828V31.2966C25.9677 32.0785 26.6015 32.7123 27.3833 32.7123H45.1906ZM28.799 29.881V21.2828C28.799 19.7175 29.7933 18.3327 31.2749 17.8318L31.7796 17.677L36.2276 29.8808L28.799 29.881ZM46.3934 28.3413C46.3934 29.2288 45.2332 29.881 44.2959 29.881H39.0284L43.4766 17.6771L43.9813 17.832C45.4631 18.3328 46.3934 19.7175 46.3934 21.283C46.3934 21.283 46.3934 26.4581 46.3934 28.3413Z" fill="#31A889"/>
<path d="M11.7096 37.0192C14.1766 37.0192 16.1837 35.0122 16.1837 32.5451C16.1837 30.0783 14.1766 28.0711 11.7096 28.0711C9.24274 28.0711 7.2355 30.0781 7.2355 32.5451C7.23567 35.012 9.24274 37.0192 11.7096 37.0192ZM11.7096 30.9026C12.6153 30.9026 13.3523 31.6394 13.3523 32.5451C13.3523 33.4509 12.6153 34.1877 11.7096 34.1877C10.8039 34.1877 10.067 33.4509 10.067 32.5451C10.067 31.6394 10.8039 30.9026 11.7096 30.9026Z" fill="#31A889"/>
<path d="M19.106 3.27475C18.553 2.72206 17.6569 2.72206 17.1039 3.27475C16.551 3.82778 16.551 4.72408 17.1039 5.27694L19.633 7.80589C9.83837 8.27845 2.00941 16.1557 1.92204 26.7303L0.189712 29.7308C0.00200193 30.0559 -0.0488399 30.4424 0.0482982 30.8051C0.145436 31.1677 0.382642 31.4769 0.707894 31.6646L2.23281 32.5451L0.707894 33.4256C0.38281 33.6133 0.145436 33.9226 0.0482982 34.2852C-0.0490082 34.6478 0.00200193 35.0343 0.189712 35.3594L3.51244 41.1145C3.90335 41.7918 4.76901 42.0232 5.44628 41.6327L6.97119 40.7522V42.513C6.97119 43.2948 7.60503 43.9286 8.38685 43.9286H15.0321C15.814 43.9286 16.4478 43.2948 16.4478 42.513V40.7522L17.9727 41.6327C18.2978 41.8204 18.6843 41.8712 19.047 41.7741C19.4096 41.6769 19.7188 41.4397 19.9065 41.1145L23.2291 35.3594C23.62 34.6823 23.388 33.8165 22.7109 33.4256L21.1858 32.5451L22.7109 31.6646C23.388 31.2736 23.62 30.4079 23.2291 29.7308L19.9065 23.9758C19.7188 23.6507 19.4096 23.4133 19.047 23.3162C18.6843 23.2185 18.2978 23.2699 17.9727 23.4576L16.4478 24.338V22.5771C16.4478 21.7953 15.814 21.1615 15.0321 21.1615H8.38702C7.6052 21.1615 6.97136 21.7953 6.97136 22.5771V24.338L5.44645 23.4576C5.32321 23.3865 5.19375 23.3365 5.06193 23.3057C6.45335 16.3899 12.3698 11.0931 19.5786 10.6465L17.1039 13.121C16.551 13.6739 16.551 14.5704 17.1039 15.1232C17.3803 15.3995 17.7426 15.5379 18.105 15.5379C18.4675 15.5379 18.8296 15.3997 19.1062 15.1232L24.0294 10.2C24.2949 9.93435 24.4441 9.57424 24.4441 9.19882C24.4441 8.82323 24.2949 8.4633 24.0294 8.19765L19.106 3.27475ZM7.67911 28.0162C8.11732 28.2689 8.65655 28.2689 9.09476 28.0162C9.53281 27.7633 9.80268 27.296 9.80268 26.7901V23.9926H13.6166V26.7901C13.6166 27.296 13.8865 27.7631 14.3246 28.0162C14.7628 28.2689 15.3023 28.2689 15.7402 28.0162L18.1628 26.6175L20.0697 29.9204L17.6471 31.319C17.2091 31.5719 16.9392 32.0392 16.9392 32.5451C16.9392 33.051 17.2091 33.5182 17.6471 33.7712L20.0697 35.1699L18.1628 38.4727L15.7402 37.0741C15.302 36.8214 14.7624 36.8214 14.3246 37.0741C13.8865 37.3269 13.6166 37.7943 13.6166 38.3002V41.0975H9.80268V38.3002C9.80268 37.7943 9.53281 37.3271 9.09476 37.0741C8.65655 36.8214 8.11732 36.8214 7.67911 37.0741L5.25655 38.4727L3.34948 35.1699L5.77204 33.7712C6.21008 33.5184 6.47995 33.051 6.47995 32.5451C6.47995 32.0392 6.21008 31.5721 5.77204 31.319L3.34948 29.9204L5.25655 26.6175L7.67911 28.0162Z" fill="#31A889"/>
</g>
<defs>
<clipPath id="clip0_35_124">
<rect width="50" height="50" fill="white"/>
</clipPath>
</defs>
</svg>
